<svg width="128" height="128" xmlns="http://www.w3.org/2000/svg"><path d="M114.5 10H76.1c-4.4 0-8.7 1.8-11.8 4.9L8.9 70.3c-6.5 6.5-6.5 17.1 0 23.6l25.2 25.2c6.5 6.5 17.1 6.5 23.6 0l55.4-55.4c3.1-3.1 4.9-7.4 4.9-11.8V13.5c0-1.9-1.6-3.5-3.5-3.5zM106 51.9c0 1.2-.5 2.3-1.3 3.1l-55.5 55.5c-1.9 1.9-5 1.9-6.9 0L17.5 85.7c-1.9-1.9-1.9-5 0-6.9l55.5-55.5c.8-.8 1.9-1.3 3.1-1.3H106v29.9z"/><path d="M88 45.8c-5.8 0-10.5-4.7-10.5-10.5S82.2 24.8 88 24.8s10.5 4.7 10.5 10.5S93.8 45.8 88 45.8zm0-14c-1.9 0-3.5 1.6-3.5 3.5s1.6 3.5 3.5 3.5 3.5-1.6 3.5-3.5-1.6-3.5-3.5-3.5z"/></svg>
